<svg xmlns="http://www.w3.org/2000/svg" version="1.1" xmlns:xlink="http://www.w3.org/1999/xlink" xmlns:svgjs="http://svgjs.dev/svgjs" width="1440" height="560" preserveAspectRatio="none" viewBox="0 0 1440 560"><g mask="url(&quot;#SvgjsMask1000&quot;)" fill="none"><rect width="1440" height="560" x="0" y="0" fill="#0e2a47"></rect><path d="M720 689.6C838.9 692.32 967.08 695.11 1054.97 614.97 1145.58 532.31 1170.09 402.64 1169.11 280 1168.12 158.52 1135.48 36.32 1049.63-49.63 963.71-135.62 841.38-176.04 720-169.51 604.64-163.29 497.74-104.95 424.03-15.97 356.44 65.6 351.68 174.12 347.56 280 343.18 392.27 324.41 516.88 399.99 600.01 477.48 685.21 604.88 686.98 720 689.6" fill="#1c538e"></path><path d="M720 545.03C796.93 546.79 879.87 548.6 936.74 496.74 995.37 443.26 1011.24 359.35 1010.6 280 1009.96 201.39 988.84 122.33 933.29 66.71 877.7 11.07 798.54-15.09 720-10.86 645.35-6.84 576.19 30.92 528.49 88.49 484.75 141.27 481.67 211.49 479.01 280 476.17 352.64 464.03 433.27 512.94 487.06 563.07 542.2 645.51 543.34 720 545.03" fill="#2774c6"></path><path d="M720 400.47C754.97 401.27 792.67 402.09 818.52 378.52 845.17 354.21 852.38 316.07 852.09 280 851.8 244.27 842.2 208.33 816.95 183.05 791.68 157.76 755.7 145.87 720 147.79 686.07 149.62 654.63 166.78 632.95 192.95 613.07 216.94 611.67 248.86 610.46 280 609.17 313.02 603.65 349.67 625.88 374.12 648.67 399.18 686.14 399.7 720 400.47" fill="#488fdb"></path></g><defs><mask id="SvgjsMask1000"><rect width="1440" height="560" fill="#ffffff"></rect></mask></defs></svg>